<svg width="1024" height="1024" viewBox="0 0 1024 1024" fill="none" xmlns="http://www.w3.org/2000/svg">
<path fill-rule="evenodd" clip-rule="evenodd" d="M572.137 510.471C572.137 504.542 570.143 500.007 566.155 496.868C562.166 493.659 554.987 490.311 544.617 486.823C534.248 483.266 526.038 479.777 519.989 476.36C503.504 467.012 495.261 454.421 495.261 438.586C495.261 430.355 497.455 423.031 501.842 416.613C506.296 410.126 512.644 405.068 520.886 401.441C529.196 397.814 538.502 396 548.805 396C559.175 396 568.415 397.988 576.524 401.964C584.634 405.871 590.916 411.416 595.369 418.601C599.89 425.786 602.15 433.948 602.15 443.086H572.237C572.237 436.11 570.143 430.704 565.955 426.867C561.768 422.961 555.884 421.008 548.307 421.008C540.995 421.008 535.311 422.647 531.257 425.926C527.202 429.134 525.174 433.39 525.174 438.691C525.174 443.644 527.534 447.794 532.253 451.143C537.039 454.491 544.052 457.63 553.292 460.56C570.309 465.931 582.707 472.592 590.484 480.545C598.261 488.497 602.15 498.403 602.15 510.261C602.15 523.445 597.397 533.805 587.891 541.338C578.386 548.802 565.589 552.534 549.503 552.534C538.336 552.534 528.165 550.406 518.992 546.151C509.819 541.826 502.806 535.932 497.953 528.468C493.167 521.004 490.774 512.354 490.774 502.519H520.787C520.787 519.33 530.359 527.735 549.503 527.735C556.615 527.735 562.166 526.235 566.155 523.236C570.143 520.167 572.137 515.912 572.137 510.471ZM223.522 460.888L223.035 448.63H206V559.158H224.009V478.458C228.357 467.902 236.436 462.624 248.247 462.624C263.238 462.624 270.733 470.66 270.733 486.732V559.158H288.839V485.813C289.553 478.731 292.116 473.112 296.529 468.958C300.942 464.736 306.491 462.624 313.175 462.624C321.287 462.624 327.063 464.599 330.502 468.549C333.942 472.431 335.661 478.322 335.661 486.221V559.158H353.67V485.098C353.281 459.424 341.535 446.587 318.432 446.587C310.774 446.587 304.122 448.221 298.477 451.49C292.895 454.759 288.353 459.049 284.848 464.361C279.527 452.511 269.5 446.587 254.769 446.587C241.66 446.587 231.244 451.354 223.522 460.888ZM389.125 451.535L413.655 534.381L439.938 451.535H459.601L422.027 560.838L426.018 572.075C428.224 578.953 431.047 583.686 434.487 586.274C437.861 588.862 442.599 590.156 448.699 590.156L453.567 589.747V605.07L446.85 606.398L443.443 606.705C429.166 606.705 418.75 597.51 412.195 579.123L369.851 451.535H389.125ZM704.648 448.63L680.117 531.475L653.834 448.63H634.171L671.746 557.932L667.754 569.169C665.548 576.047 662.725 580.78 659.286 583.369C655.911 585.956 651.174 587.25 645.074 587.25L640.207 586.842V602.165L646.923 603.492L650.33 603.799C664.607 603.799 675.023 594.605 681.577 576.218L723.922 448.63H704.648ZM795.859 517.991C799.558 520.783 801.408 524.733 801.408 529.841C801.408 534.676 799.331 538.558 795.178 541.486C791.089 544.346 785.637 545.777 778.824 545.777C771.425 545.777 765.455 543.937 760.913 540.26C756.435 536.515 754.033 531.475 753.709 525.141H735.701C735.701 531.679 737.518 537.774 741.152 543.427C744.851 549.011 749.945 553.37 756.435 556.502C762.924 559.635 770.387 561.201 778.824 561.201C790.829 561.201 800.596 558.239 808.124 552.314C815.652 546.321 819.416 538.388 819.416 528.513C819.416 522.588 818.053 517.582 815.328 513.496C812.667 509.342 808.546 505.801 802.965 502.872C797.384 499.944 790.083 497.424 781.063 495.313C772.107 493.202 765.909 490.989 762.47 488.673C759.031 486.358 757.311 482.918 757.311 478.356C757.311 473.521 759.16 469.605 762.859 466.608C766.558 463.612 771.685 462.114 778.24 462.114C784.599 462.114 789.856 463.986 794.009 467.732C798.228 471.477 800.337 475.938 800.337 481.114H818.443C818.443 471.035 814.711 462.761 807.248 456.291C799.85 449.821 790.181 446.587 778.24 446.587C766.883 446.587 757.538 449.719 750.205 455.985C742.936 462.25 739.302 469.911 739.302 478.969C739.302 484.417 740.568 489.116 743.098 493.066C745.694 497.016 749.653 500.421 754.974 503.281C760.361 506.141 767.597 508.593 776.682 510.636C785.833 512.679 792.225 515.131 795.859 517.991ZM593.266 598.798H593.265L593.266 598.798L604.343 607.511L604.563 607.332L630.223 626.715L640.978 617.566L615.548 598.357L641.302 577.315L630.223 568.601L604.25 589.823L604.019 589.649L593.266 598.798ZM499.815 598.798L499.815 598.797L489.111 589.583L488.882 589.758L463.294 568.601L452.263 577.381L477.634 598.357L452.59 617.501L463.294 626.715L488.566 607.396L488.785 607.577L499.815 598.798L499.815 598.798Z" fill="black"/>
</svg>
