<svg width="1024" height="1024" viewBox="0 0 1024 1024" fill="none" xmlns="http://www.w3.org/2000/svg">
<rect width="1024" height="1024" fill="#F8F8FA"/>
<path fill-rule="evenodd" clip-rule="evenodd" d="M598.335 501.663C598.335 493.963 595.457 488.075 589.702 483.997C583.947 479.83 573.588 475.482 558.623 470.952C543.66 466.332 531.814 461.802 523.086 457.363C499.297 445.224 487.403 428.872 487.403 408.307C487.403 397.617 490.568 388.105 496.899 379.77C503.326 371.345 512.487 364.777 524.38 360.066C536.371 355.355 549.799 353 564.667 353C579.631 353 592.964 355.582 604.666 360.746C616.368 365.819 625.432 373.021 631.859 382.352C638.381 391.683 641.643 402.283 641.643 414.15H598.479C598.479 405.091 595.457 398.07 589.414 393.087C583.372 388.014 574.882 385.478 563.947 385.478C553.396 385.478 545.195 387.607 539.344 391.864C533.493 396.032 530.567 401.558 530.567 408.443C530.567 414.875 533.972 420.265 540.783 424.614C547.689 428.962 557.808 433.039 571.141 436.844C595.697 443.82 613.586 452.471 624.809 462.799C636.031 473.126 641.643 485.991 641.643 501.392C641.643 518.513 634.785 531.967 621.068 541.751C607.352 551.444 588.886 556.291 565.674 556.291C549.56 556.291 534.883 553.527 521.646 548.002C508.409 542.385 498.29 534.729 491.288 525.036C484.381 515.342 480.928 504.109 480.928 491.336H524.236C524.236 513.169 538.049 524.085 565.674 524.085C575.937 524.085 583.947 522.137 589.702 518.242C595.457 514.256 598.335 508.729 598.335 501.663ZM95.284 437.27L94.5817 421.35H70V564.893H95.9863V460.089C102.26 446.38 113.919 439.525 130.962 439.525C152.594 439.525 163.41 449.961 163.41 470.834V564.893H189.537V469.641C190.567 460.442 194.266 453.145 200.634 447.751C207.001 442.267 215.008 439.525 224.653 439.525C236.359 439.525 244.694 442.09 249.656 447.22C254.62 452.261 257.101 459.911 257.101 470.171V564.893H283.087V468.711C282.526 435.368 265.576 418.697 232.239 418.697C221.188 418.697 211.59 420.82 203.443 425.065C195.389 429.31 188.835 434.882 183.778 441.781C176.099 426.391 161.631 418.697 140.374 418.697C121.458 418.697 106.428 424.888 95.284 437.27ZM334.249 425.124L369.646 532.715L407.572 425.124H435.946L381.726 567.075L387.486 581.669C390.669 590.601 394.742 596.748 399.706 600.109C404.575 603.47 411.412 605.15 420.214 605.15L427.238 604.62V624.52L417.546 626.244L412.629 626.642C392.028 626.642 376.997 614.702 367.539 590.823L306.436 425.124H334.249ZM789.547 421.35L754.15 528.942L716.224 421.35H687.85L742.069 563.302L736.31 577.895C733.127 586.827 729.053 592.975 724.09 596.336C719.22 599.696 712.384 601.376 703.582 601.376L696.559 600.846V620.746L706.251 622.471L711.167 622.869C731.769 622.869 746.798 610.928 756.256 587.049L817.359 421.35H789.547ZM921.164 511.43C926.502 515.056 929.171 520.186 929.171 526.819C929.171 533.098 926.175 538.14 920.181 541.942C914.281 545.658 906.415 547.515 896.583 547.515C885.907 547.515 877.292 545.126 870.737 540.351C864.276 535.487 860.81 528.942 860.342 520.716H834.356C834.356 529.207 836.978 537.123 842.222 544.463C847.56 551.716 854.911 557.376 864.276 561.444C873.64 565.513 884.409 567.547 896.583 567.547C913.906 567.547 928.001 563.7 938.863 556.006C949.726 548.223 955.157 537.919 955.157 525.094C955.157 517.4 953.191 510.899 949.258 505.592C945.418 500.197 939.472 495.598 931.419 491.795C923.365 487.992 912.83 484.72 899.813 481.978C886.89 479.237 877.947 476.362 872.985 473.355C868.021 470.348 865.54 465.881 865.54 459.956C865.54 453.676 868.208 448.591 873.546 444.699C878.884 440.808 886.282 438.862 895.74 438.862C904.917 438.862 912.502 441.294 918.495 446.158C924.582 451.023 927.626 456.816 927.626 463.538H953.753C953.753 450.448 948.368 439.702 937.599 431.3C926.924 422.898 912.971 418.697 895.74 418.697C879.352 418.697 865.868 422.765 855.286 430.902C844.797 439.039 839.553 448.989 839.553 460.752C839.553 467.827 841.379 473.93 845.031 479.059C848.777 484.19 854.49 488.611 862.168 492.326C869.941 496.041 880.382 499.225 893.493 501.878C906.697 504.531 915.92 507.715 921.164 511.43ZM628.823 616.374H628.822L628.823 616.375L644.808 627.69L645.125 627.457L682.153 652.629L697.672 640.748L660.976 615.801L698.139 588.474L682.153 577.158L644.673 604.718L644.341 604.492L628.823 616.374ZM493.974 616.374L493.973 616.373L478.529 604.407L478.198 604.634L441.274 577.158L425.357 588.559L461.967 615.802L425.828 640.663L441.274 652.629L477.742 627.541L478.057 627.775L493.973 616.375L493.974 616.374Z" fill="black"/>
</svg>
